<svg width="192" height="19" viewBox="0 0 192 19" fill="none" xmlns="http://www.w3.org/2000/svg">
<path d="M1.51873 0.794685C1.55371 0.371823 1.46451 0.211548 1.38231 0.131409C1.36831 0.117768 1.36306 0.105831 1.36306 0.09219C1.36306 0.0666137 1.38056 0.0512695 1.41029 0.0512695H2.85327C2.8795 0.0512695 2.91273 0.0785511 2.90749 0.131409L2.76756 1.61142C2.75531 1.73589 2.80604 1.80239 3.00543 1.95073C3.51266 2.32926 5.05533 3.47849 6.90933 6.95346C9.08691 11.0678 9.79527 14.8105 9.87573 14.8105C9.95794 14.8105 10.4757 12.5018 12.2177 8.62616C14.3691 3.82122 16.3298 2.38724 16.4662 1.43239C16.5204 1.1664 16.4942 0.421274 16.1391 0.131409C16.1251 0.119473 16.1164 0.107536 16.1164 0.09219C16.1164 0.0666137 16.1339 0.0512695 16.1653 0.0512695H18.5073C18.5108 0.0512695 18.5808 0.0529748 18.5878 0.131409C18.6333 0.566206 20.0972 16.2036 20.1952 17.0663C20.2354 17.4295 20.3753 18.3315 20.573 18.5446C20.5905 18.5651 20.6045 18.5702 20.6045 18.5941C20.6045 18.6146 20.5905 18.6333 20.5572 18.6333H18.1505C17.9599 18.6333 17.9231 18.5788 17.9074 18.4219C17.8707 18.0775 16.9192 8.28343 16.5729 4.14007C16.5659 4.05311 16.5291 3.97638 16.4644 4.00707C16.2458 4.10937 15.0757 5.22792 13.3336 9.13086C11.0721 14.1472 10.1486 18.6333 9.95794 18.6333C9.79353 18.6333 8.73185 14.6247 6.47207 10.3244C6.0453 9.51962 3.33426 4.87837 2.54718 4.87837C2.43699 4.87837 2.39851 4.97044 2.38802 5.09492L1.37706 17.7961C1.35607 18.0621 1.34033 18.4185 1.46801 18.5481C1.482 18.5617 1.4925 18.577 1.4925 18.5941C1.4925 18.6197 1.475 18.6316 1.44527 18.6316H0.0547724C0.0285365 18.6316 -0.00469516 18.6043 0.000552012 18.5515C0.0320351 18.1815 1.43478 1.83138 1.51873 0.794685Z" fill="#FCFCF0"/>
<path d="M32.7814 10.3158C32.0993 10.0754 30.9256 10.1061 29.7782 10.3959C28.2776 10.7727 26.9658 11.5417 26.6107 12.234C26.3099 12.8206 25.0296 16.287 24.7252 17.0867C24.4296 17.8608 24.3387 18.328 24.4978 18.5394C24.5171 18.565 24.5258 18.5769 24.5293 18.5923C24.5328 18.6059 24.5258 18.6332 24.4804 18.6315C24.3981 18.6315 22.9499 18.6315 22.9499 18.6315C22.894 18.6315 22.8642 18.611 22.9149 18.4644C22.9569 18.3433 23.0304 18.1592 23.1686 17.779C23.34 17.3101 28.9317 2.63777 29.1224 1.89265C29.2868 1.4391 29.0996 0.35125 28.7743 0.0869611C28.7498 0.0665001 28.7498 0.0494511 28.7498 0.0409256C28.7498 0.0170544 28.7638 0 28.7953 0C28.8775 0 31.8002 0 31.9086 0C32.045 0 32.045 0.0801402 32.0992 0.187561C32.2916 0.560975 34.7701 7.33529 36.1955 11.0899C37.3097 14.0261 38.4063 17.0355 38.653 17.6477C38.8156 18.0484 38.9521 18.3212 39.1462 18.507C39.2074 18.565 39.2284 18.5633 39.2284 18.5957C39.2284 18.6366 39.1847 18.6349 39.1777 18.6349C39.0115 18.6349 36.701 18.6349 36.701 18.6349C36.4142 18.6349 36.3687 18.3399 36.0609 17.5948C35.9314 17.2828 34.8837 14.1846 33.6034 11.1189C33.4338 10.7182 33.1627 10.4505 32.7814 10.3158ZM27.2928 10.2629C27.2089 10.4505 27.1284 10.6363 27.1844 10.6108C28.386 9.43766 30.7053 8.55784 32.645 8.55784C32.6992 8.55784 32.7044 8.52885 32.645 8.37198C32.4596 7.88774 30.5881 2.83045 30.4884 2.56105C30.3974 2.32404 30.3554 2.29505 30.2697 2.50819C30.1368 2.82704 27.4817 9.83665 27.2928 10.2629Z" fill="#FCFCF0"/>
<path d="M42.1021 0.218322C42.0863 0.202976 42.0654 0.194455 42.0654 0.168878C42.0636 0.143302 42.0829 0.131366 42.1038 0.131366H44.5298C44.5298 0.131366 44.6382 0.117725 44.6382 0.231966C44.6382 1.07769 44.6382 7.55873 44.6382 7.82131C44.6382 8.13846 44.7729 8.32431 45.016 8.32431H53.7473C53.9922 8.32431 54.1269 8.06002 54.1269 7.63716C54.1269 6.76415 54.1269 1.0828 54.1269 0.81681C54.1269 0.470677 54.1076 0.320628 54.0027 0.218322C53.9869 0.202976 53.966 0.194455 53.966 0.168878C53.966 0.143302 53.9834 0.131366 54.0044 0.131366H56.4041C56.4041 0.131366 56.5126 0.117725 56.5126 0.231966V17.7074C56.5126 18.1831 56.5126 18.369 56.6473 18.5276C56.7015 18.5787 56.6752 18.6333 56.621 18.6333C55.8619 18.6333 54.398 18.6333 54.2878 18.6333C54.1793 18.6333 54.1251 18.6333 54.1251 18.5276V10.0175C54.1251 9.69861 53.9904 9.51446 53.7456 9.51446H45.0423C44.7991 9.51446 44.6365 9.77875 44.6365 10.2016C44.6365 12.7797 44.605 15.4379 44.6365 17.9461C44.647 18.3025 44.6837 18.4423 44.7886 18.5463C44.8026 18.56 44.8254 18.5702 44.8254 18.5958C44.8254 18.6213 44.8079 18.6333 44.7852 18.6333H42.3592C42.3592 18.6333 42.2508 18.6469 42.2508 18.531C42.2508 17.8353 42.249 1.89101 42.249 0.81681C42.2525 0.460446 42.207 0.320628 42.1021 0.218322Z" fill="#FCFCF0"/>
<path d="M59.6977 0.218322C59.6819 0.202976 59.6609 0.194455 59.6609 0.168878C59.6592 0.143302 59.6784 0.131366 59.6994 0.131366H62.1254C62.1254 0.131366 62.2338 0.117725 62.2338 0.231966C62.2338 1.07769 62.2338 7.55873 62.2338 7.82131C62.2338 8.13846 62.3685 8.32431 62.6116 8.32431H71.3429C71.5878 8.32431 71.7224 8.06002 71.7224 7.63716C71.7224 6.76415 71.7224 1.0828 71.7224 0.81681C71.7224 0.470677 71.7032 0.320628 71.5983 0.218322C71.5825 0.202976 71.5615 0.194455 71.5615 0.168878C71.5615 0.143302 71.579 0.131366 71.6 0.131366H73.9997C73.9997 0.131366 74.1082 0.117725 74.1082 0.231966V17.7074C74.1082 18.1831 74.1082 18.369 74.2428 18.5276C74.2971 18.5787 74.2708 18.6333 74.2166 18.6333C73.4575 18.6333 71.9935 18.6333 71.8834 18.6333C71.7749 18.6333 71.7207 18.6333 71.7207 18.5276V10.0175C71.7207 9.69861 71.586 9.51446 71.3411 9.51446H62.6378C62.3947 9.51446 62.2321 9.77875 62.2321 10.2016C62.2321 12.7797 62.2006 15.4379 62.2321 17.9461C62.2426 18.3025 62.2793 18.4423 62.3842 18.5463C62.3982 18.56 62.4209 18.5702 62.4209 18.5958C62.4209 18.6213 62.4035 18.6333 62.3807 18.6333H59.9548C59.9548 18.6333 59.8463 18.6469 59.8463 18.531C59.8463 17.8353 59.8446 1.89101 59.8446 0.81681C59.8481 0.460446 59.8009 0.320628 59.6977 0.218322Z" fill="#FCFCF0"/>
<path d="M86.6034 10.3158C85.9213 10.0754 84.7477 10.1061 83.6003 10.3959C82.0996 10.7727 80.7878 11.5417 80.4327 12.234C80.1319 12.8206 78.8516 16.287 78.5472 17.0867C78.2516 17.8608 78.1607 18.328 78.3199 18.5394C78.3391 18.565 78.3478 18.5769 78.3513 18.5923C78.3548 18.6059 78.3478 18.6332 78.3024 18.6315C78.2202 18.6315 76.7719 18.6315 76.7719 18.6315C76.716 18.6315 76.6862 18.611 76.737 18.4644C76.7789 18.3433 76.8524 18.1592 76.9906 17.779C77.162 17.3101 82.7537 2.63777 82.9444 1.89265C83.1088 1.4391 82.9216 0.35125 82.5963 0.0869611C82.5718 0.0665001 82.5718 0.0494511 82.5718 0.0409256C82.5718 0.0170544 82.5858 0 82.6173 0C82.6995 0 85.6222 0 85.7306 0C85.867 0 85.867 0.0801402 85.9213 0.187561C86.1137 0.560975 88.5921 7.33529 90.0176 11.0899C91.1317 14.0261 92.2284 17.0355 92.475 17.6477C92.6377 18.0484 92.7741 18.3212 92.9682 18.507C93.0294 18.565 93.0504 18.5633 93.0504 18.5957C93.0504 18.6366 93.0067 18.6349 92.9997 18.6349C92.8335 18.6349 90.523 18.6349 90.523 18.6349C90.2362 18.6349 90.1907 18.3399 89.8829 17.5948C89.7535 17.2828 88.7058 14.1846 87.4255 11.1189C87.2576 10.7182 86.9864 10.4505 86.6034 10.3158ZM81.1166 10.2629C81.0327 10.4505 80.9522 10.6363 81.0082 10.6108C82.2098 9.43766 84.529 8.55784 86.4687 8.55784C86.5229 8.55784 86.5282 8.52885 86.4687 8.37198C86.2833 7.88774 84.4118 2.83045 84.3121 2.56105C84.2212 2.32404 84.1792 2.29505 84.0935 2.50819C83.9588 2.82704 81.3055 9.83665 81.1166 10.2629Z" fill="#FCFCF0"/>
<path d="M106.268 7.27049C106.268 6.07352 106.27 2.4127 106.27 1.95403C106.27 1.68804 106.235 1.58232 106.158 1.50559C106.146 1.49366 106.132 1.48684 106.132 1.46808C106.13 1.44932 106.144 1.43909 106.161 1.43909H108.229C108.229 1.43909 108.311 1.42886 108.311 1.51582C108.311 6.24574 108.372 14.7439 108.372 15.6868C108.372 15.9528 108.407 16.0585 108.484 16.1352C108.496 16.1472 108.51 16.154 108.51 16.1728C108.512 16.1915 108.498 16.2017 108.482 16.2017H106.35C106.35 16.2017 106.268 16.212 106.268 16.125V14.9707C106.268 13.9647 106.083 16.2017 102.922 16.2017C99.8997 16.2017 98.3798 14.0363 98.3798 11.2246C98.3798 8.55272 99.5744 6.07352 102.906 6.07352C105.535 6.07182 106.268 7.61151 106.268 7.27049ZM102.919 15.4106C104.871 15.4106 105.939 13.6697 105.939 11.2229C105.939 8.27308 104.722 6.81864 102.903 6.88514C100.557 6.96869 99.989 9.59794 99.9995 11.2229C100.012 13.3594 100.773 15.4106 102.919 15.4106Z" fill="#FCFCF0"/>
<path d="M113.375 15.68C113.375 15.9545 113.411 16.0619 113.49 16.1404C113.502 16.1523 113.518 16.1591 113.518 16.1779C113.52 16.1983 113.504 16.2068 113.488 16.2068H111.4C111.4 16.2068 111.316 16.2171 111.316 16.1284C111.316 12.587 111.316 9.04378 111.316 5.50231C111.316 5.2278 111.279 5.12037 111.2 5.04194C111.188 5.03 111.172 5.02318 111.172 5.00443C111.171 4.98397 111.186 4.97544 111.202 4.97544H113.291C113.291 4.97544 113.375 4.96521 113.375 5.05388V15.68ZM112.362 1.43056C112.857 1.41863 113.336 2.14841 113.336 2.74348C113.333 3.36584 112.799 4.07686 112.346 4.06493C111.905 4.05299 111.349 3.3846 111.356 2.74348C111.365 2.14329 111.839 1.42886 112.362 1.43056Z" fill="#FCFCF0"/>
<path d="M118.361 15.68C118.361 15.9545 118.398 16.0619 118.477 16.1404C118.489 16.1523 118.505 16.1591 118.505 16.1779C118.506 16.1983 118.491 16.2068 118.475 16.2068H116.386C116.386 16.2068 116.302 16.2171 116.302 16.1284C116.302 12.587 116.302 9.04378 116.302 5.50231C116.302 5.2278 116.266 5.12037 116.187 5.04194C116.175 5.03 116.159 5.02318 116.159 5.00443C116.157 4.98397 116.173 4.97544 116.189 4.97544H118.277C118.277 4.97544 118.361 4.96521 118.361 5.05388V15.68ZM117.347 1.43056C117.842 1.41863 118.321 2.14841 118.321 2.74348C118.317 3.36584 117.784 4.07686 117.331 4.06493C116.89 4.05299 116.334 3.3846 116.341 2.74348C116.35 2.14329 116.825 1.42886 117.347 1.43056Z" fill="#FCFCF0"/>
<path d="M127.72 0.794685C127.755 0.371823 127.666 0.211548 127.584 0.131409C127.57 0.117768 127.565 0.105831 127.565 0.09219C127.565 0.0666137 127.582 0.0512695 127.612 0.0512695H129.055C129.081 0.0512695 129.114 0.0785511 129.109 0.131409L128.969 1.61142C128.957 1.73589 129.008 1.80239 129.207 1.95073C129.714 2.32926 131.257 3.47849 133.111 6.95346C135.288 11.0678 135.997 14.8105 136.077 14.8105C136.159 14.8105 136.677 12.5018 138.419 8.62616C140.571 3.82122 142.531 2.38724 142.668 1.43239C142.722 1.1664 142.696 0.421274 142.341 0.131409C142.327 0.119473 142.318 0.107536 142.318 0.09219C142.318 0.0666137 142.335 0.0512695 142.367 0.0512695H144.709C144.712 0.0512695 144.782 0.0529748 144.789 0.131409C144.835 0.566206 146.299 16.2036 146.397 17.0663C146.437 17.4295 146.577 18.3315 146.775 18.5446C146.792 18.5651 146.806 18.5702 146.806 18.5941C146.806 18.6146 146.792 18.6333 146.759 18.6333H144.352C144.161 18.6333 144.125 18.5788 144.109 18.4219C144.072 18.0775 143.121 8.28343 142.774 4.14007C142.767 4.05311 142.731 3.97638 142.666 4.00707C142.447 4.10937 141.277 5.22792 139.535 9.13086C137.274 14.1472 136.35 18.6333 136.159 18.6333C135.995 18.6333 134.933 14.6247 132.674 10.3244C132.247 9.51962 129.536 4.87837 128.749 4.87837C128.639 4.87837 128.6 4.97044 128.59 5.09492L127.579 17.7961C127.558 18.0621 127.542 18.4185 127.67 18.5481C127.684 18.5617 127.694 18.577 127.694 18.5941C127.694 18.6197 127.677 18.6316 127.647 18.6316H126.256C126.23 18.6316 126.197 18.6043 126.202 18.5515C126.232 18.1815 127.635 1.83138 127.72 0.794685Z" fill="#FCFCF0"/>
<path d="M160.071 1.61465C160.071 1.61635 160.071 1.72036 159.961 1.66751C159.602 1.42879 159.189 1.4288 158.775 1.4288C156.595 1.4288 154.442 1.4288 152.263 1.4288C151.877 1.4288 151.904 1.48166 151.904 1.85337C151.904 3.28393 151.904 7.39319 151.904 7.73933C151.904 8.0309 151.905 8.26961 152.291 8.26961H157.975C158.003 8.26961 158.03 8.26961 158.03 8.37533V9.64732C158.03 9.64902 158.03 9.80589 157.92 9.70018C157.727 9.51432 157.453 9.48875 157.092 9.48875C155.74 9.48875 153.117 9.48875 152.261 9.48875C151.959 9.48875 151.903 9.70018 151.903 9.93889L151.906 16.911C151.906 17.2026 151.934 17.2827 152.237 17.2827C154.058 17.2827 155.107 17.2827 155.107 17.2827C158.308 17.2827 159.632 17.3611 159.99 17.0184C160.073 16.9383 160.073 17.0184 160.073 17.0968V18.5274C160.073 18.5291 160.073 18.6331 159.99 18.6331C158.087 18.6331 149.863 18.6331 149.727 18.6331C149.561 18.6331 149.505 18.6076 149.505 18.4473C149.505 18.4473 149.477 0.975243 149.477 0.763812C149.477 0.407449 149.398 0.26763 149.295 0.165325C149.279 0.149979 149.258 0.141458 149.258 0.115881C149.256 0.090305 149.276 0.0783691 149.297 0.0783691C149.381 0.0783691 159.831 0.0783691 160.018 0.0783691C160.073 0.0783691 160.073 0.103944 160.073 0.156802V1.61465H160.071Z" fill="#FCFCF0"/>
<path d="M165.647 18.5701C165.663 18.5854 165.684 18.5956 165.684 18.6195C165.685 18.6451 165.666 18.657 165.645 18.657H163.154C163.154 18.657 163.046 18.6707 163.046 18.5564C163.046 18.5309 163.046 1.76131 163.046 0.770658C163.046 0.414295 162.966 0.274476 162.862 0.172171C162.847 0.156825 162.826 0.148298 162.826 0.122722C162.824 0.0971452 162.843 0.0852094 162.864 0.0852094C165.22 0.0852094 167.625 0.0118946 169.96 0.329041C171.991 0.59674 174.457 1.53283 174.457 4.63609C174.457 7.21418 172.57 8.28327 170.539 9.00623C170.222 9.11877 169.699 9.29098 169.727 9.31826C172.571 10.8699 173.18 12.5545 174.833 15.4992C175.872 17.3492 176.316 17.8761 176.806 18.2018C177.36 18.5718 177.869 18.6314 177.878 18.657C177.899 18.7133 177.369 18.8514 176.778 18.8173C176.11 18.7815 175.407 18.5547 174.544 17.3987C174.13 16.8428 173.124 15.3116 172.542 14.3483C170.25 10.4675 168.365 10.2833 167.784 10.2544C166.724 10.2015 165.461 10.9364 165.461 11.5843C165.461 12.3806 165.465 15.2912 165.465 17.9699C165.463 18.3279 165.542 18.4678 165.647 18.5701ZM166.623 9.34554C168.421 8.38217 171.873 7.39322 171.873 4.07512C171.873 2.89861 171.438 1.71869 169.552 1.26513C168.246 0.971857 166.364 1.052 165.638 1.052C165.551 1.052 165.465 1.052 165.465 1.13043C165.465 3.72728 165.461 8.38217 165.461 10.1214C165.463 10.2544 165.551 9.90822 166.623 9.34554Z" fill="#FCFCF0"/>
<path d="M189.352 0.187454C189.352 0.0715076 189.46 0.086854 189.46 0.086854H191.961C191.982 0.086854 192.002 0.0987898 192 0.124366C192 0.148237 191.981 0.158469 191.963 0.173815C191.86 0.27612 191.78 0.417639 191.78 0.772297V12.8136C191.78 15.3014 191.405 16.009 190.713 16.8854C188.636 19.5726 181.691 19.8829 179.442 16.7439C178.606 15.5554 178.432 14.2851 178.432 12.6721V0.772297C178.432 0.415934 178.352 0.27612 178.249 0.173815C178.233 0.158469 178.212 0.148237 178.212 0.124366C178.21 0.0987898 178.23 0.086854 178.251 0.086854H180.731C180.731 0.086854 180.839 0.0732126 180.839 0.187454L180.853 8.42814C180.883 12.3874 180.622 15.4412 181.948 16.7421C183.678 18.4387 187.05 18.0994 188.376 16.7421C189.668 15.419 189.359 12.4351 189.355 8.46566L189.352 0.187454Z" fill="#FCFCF0"/>
</svg>
